<?xml version="1.0" encoding="utf-8"?>
<!-- Generator: Adobe Illustrator 20.1.0, SVG Export Plug-In . SVG Version: 6.00 Build 0)  -->
<svg version="1.1" id="Layer_1" xmlns="http://www.w3.org/2000/svg" xmlns:xlink="http://www.w3.org/1999/xlink" x="0px" y="0px"
	 viewBox="0 0 112.2 53.8" style="enable-background:new 0 0 112.2 53.8;" xml:space="preserve">
<style type="text/css">
	.st0{fill:#FAC863;}
	.st1{fill:#61DAFB;}
</style>
<g>
	<g>
		<path class="st0" d="M85,1.4c-14.1,0-25.5,11.4-25.5,25.5S70.9,52.4,85,52.4s25.5-11.4,25.5-25.5S99,1.4,85,1.4z M85,37.2
			c-5.7,0-10.3-4.6-10.3-10.3S79.3,16.6,85,16.6s10.3,4.6,10.3,10.3C95.2,32.6,90.6,37.2,85,37.2z"/>
	</g>
</g>
<path class="st1" d="M37.7,26.9L50,14.6c1.8-1.8,1.8-4.7,0-6.5l-4.4-4.4c-1.8-1.8-4.7-1.8-6.5,0L26.8,16.1L14.5,3.8
	C12.7,2,9.8,2,8,3.8L3.6,8.2c-1.8,1.8-1.8,4.7,0,6.5L15.9,27L3.6,39.2c-1.8,1.8-1.8,4.7,0,6.5L8,50.1c1.8,1.8,4.7,1.8,6.5,0
	l12.3-12.3l12.3,12.3c1.8,1.8,4.7,1.8,6.5,0l4.4-4.4c1.8-1.8,1.8-4.7,0-6.5L37.7,26.9z"/>
</svg>
