<?xml version="1.0" encoding="utf-8"?>
<!-- Generator: Adobe Illustrator 20.1.0, SVG Export Plug-In . SVG Version: 6.00 Build 0)  -->
<svg version="1.1" id="Layer_1" xmlns="http://www.w3.org/2000/svg" xmlns:xlink="http://www.w3.org/1999/xlink" x="0px" y="0px"
	 viewBox="0 0 60.8 59.3" style="enable-background:new 0 0 60.8 59.3;" xml:space="preserve">
<style type="text/css">
	.st0{fill-rule:evenodd;clip-rule:evenodd;fill:#282C34;}
</style>
<path class="st0" d="M54.6,34L54.6,34h-6.6c-0.4,0-0.7,0.3-0.9,0.8c-0.9,2.3-1.6,3.6-1.9,3.9c-1.6,2.6-3.6,4.7-6.3,6.1
	c-2.6,1.4-5.5,2.2-8.5,2.2c-2.2,0-4.2-0.3-6.3-1.2c-2-0.8-3.9-1.9-5.5-3.5l4.7-4.5c0.3-0.5,0.6-1,0.6-1.6c0-0.7-0.2-1.2-0.6-1.6
	c-0.5-0.3-1-0.7-1.6-0.7H6.4c-0.6,0-1.1,0.3-1.6,0.7c-0.2,0.4-0.6,0.9-0.6,1.6v15.2c0,0.7,0.3,1.1,0.6,1.6c0.5,0.3,1,0.7,1.6,0.7
	c0.7,0,1.2-0.3,1.6-0.7l4.5-4.4c2.3,2.1,5.1,4.1,8.2,5.4c3.1,1.2,6.3,1.7,9.6,1.7c6.3,0,11.6-1.8,16.3-5.5c4.5-3.8,7.6-8.8,9-14.8
	c0.2-0.2,0.2-0.2,0.2-0.3c0-0.2-0.2-0.4-0.3-0.7C55.1,34.1,54.9,34,54.6,34L54.6,34z"/>
<path class="st0" d="M55.8,6.4c-0.4-0.4-0.9-0.7-1.6-0.7c-0.6,0-1.1,0.3-1.6,0.7l-4.4,4.3c-2.3-2.2-5.2-4-8.4-5.2
	c-3-1.2-6.3-1.9-9.6-1.9c-6.1,0-11.6,1.9-16.3,5.7C9.5,13,6.4,17.9,4.9,23.9v0.3c0,0.3,0.2,0.5,0.3,0.8c0.3,0.2,0.5,0.2,0.8,0.2h6.7
	c0.5,0,0.8-0.2,1-0.7c1.1-2.2,1.6-3.6,1.9-4c1.6-2.6,3.6-4.7,6.3-6.1c2.6-1.4,5.5-2.1,8.4-2.1c4.6,0,8.5,1.6,12,4.7l-4.7,4.5
	c-0.5,0.5-0.7,0.9-0.7,1.6c0,0.6,0.2,1.1,0.7,1.6c0.3,0.5,0.9,0.6,1.4,0.6h15.2c0.7,0,1.2-0.1,1.6-0.6c0.5-0.5,0.7-1,0.7-1.6V7.8
	C56.5,7.4,56.3,6.8,55.8,6.4L55.8,6.4z"/>
</svg>
