<?xml version="1.0" encoding="utf-8"?>
<!-- Generator: Adobe Illustrator 20.1.0, SVG Export Plug-In . SVG Version: 6.00 Build 0)  -->
<svg version="1.1" id="Layer_1" xmlns="http://www.w3.org/2000/svg" xmlns:xlink="http://www.w3.org/1999/xlink" x="0px" y="0px"
	 viewBox="0 0 52.2 51.5" style="enable-background:new 0 0 52.2 51.5;" xml:space="preserve">
<style type="text/css">
	.st0{fill:#FAC863;}
</style>
<path class="st0" d="M37,25.7l12.3-12.3c1.8-1.8,1.8-4.7,0-6.5l-4.4-4.4c-1.8-1.8-4.7-1.8-6.5,0L26.1,14.9L13.8,2.6
	c-1.8-1.8-4.7-1.8-6.5,0L2.9,7c-1.8,1.8-1.8,4.7,0,6.5l12.3,12.3L2.9,38c-1.8,1.8-1.8,4.7,0,6.5l4.4,4.4c1.8,1.8,4.7,1.8,6.5,0
	l12.3-12.3l12.3,12.3c1.8,1.8,4.7,1.8,6.5,0l4.4-4.4c1.8-1.8,1.8-4.7,0-6.5L37,25.7z"/>
</svg>
